ply
format ascii 1.0
comment Created by Blender 2.80 (sub 75) - www.blender.org, source file: ''
element vertex 30
property float x
property float y
property float z
property float nx
property float ny
property float nz
property float s
property float t
element face 10
property list uchar uint vertex_indices
end_header
-0.000000 -0.000000 0.123293 0.224806 0.691871 0.686132 0.495042 0.504901
0.082054 0.059614 0.036296 0.224806 0.691871 0.686132 0.613504 0.540925
-0.031341 0.096459 0.036296 0.224806 0.691871 0.686132 0.491483 0.624302
0.082054 0.059614 0.036296 0.727473 0.000000 0.686136 0.613504 0.540925
-0.000000 -0.000000 0.123293 0.727473 0.000000 0.686136 0.495042 0.504901
0.082054 -0.059614 0.036296 0.727473 0.000000 0.686136 0.571815 0.406021
-0.000000 -0.000000 0.123293 -0.588531 0.427608 0.686136 0.495042 0.504901
-0.031341 0.096459 0.036296 -0.588531 0.427608 0.686136 0.491483 0.624302
-0.101425 -0.000000 0.036296 -0.588531 0.427608 0.686136 0.374379 0.540927
-0.000000 -0.000000 0.123293 -0.588531 -0.427608 0.686136 0.495042 0.504901
-0.101425 -0.000000 0.036296 -0.588531 -0.427608 0.686136 0.374379 0.540927
-0.031341 -0.096459 0.036296 -0.588531 -0.427608 0.686136 0.424029 0.406021
-0.000000 -0.000000 0.123293 0.224806 -0.691871 0.686132 0.495042 0.504901
-0.031341 -0.096459 0.036296 0.224806 -0.691871 0.686132 0.424029 0.406021
0.082054 -0.059614 0.036296 0.224806 -0.691871 0.686132 0.571815 0.406021
-0.031341 0.096459 0.036296 0.308477 0.949379 -0.059349 0.491483 0.624302
0.082054 0.059614 0.036296 0.308477 0.949379 -0.059349 0.613504 0.540925
-0.000000 0.000000 -1.343811 0.308477 0.949379 -0.059349 0.769424 0.921657
-0.031341 -0.096459 0.036296 -0.807580 -0.586764 -0.059350 0.424029 0.406021
-0.101425 -0.000000 0.036296 -0.807580 -0.586764 -0.059350 0.374379 0.540927
-0.000000 0.000000 -1.343811 -0.807580 -0.586764 -0.059350 -0.048014 0.301670
0.082054 -0.059614 0.036296 0.308476 -0.949379 -0.059349 0.571815 0.406021
-0.031341 -0.096459 0.036296 0.308476 -0.949379 -0.059349 0.424029 0.406021
-0.000000 0.000000 -1.343811 0.308476 -0.949379 -0.059349 0.491275 -0.085121
-0.101425 -0.000000 0.036296 -0.807580 0.586764 -0.059350 0.374379 0.540927
-0.031341 0.096459 0.036296 -0.807580 0.586764 -0.059350 0.491483 0.624302
-0.000000 0.000000 -1.343811 -0.807580 0.586764 -0.059350 0.123887 0.923902
0.082054 0.059614 0.036296 0.998237 -0.000000 -0.059350 0.613504 0.540925
0.082054 -0.059614 0.036296 0.998237 -0.000000 -0.059350 0.571815 0.406021
-0.000000 0.000000 -1.343811 0.998237 -0.000000 -0.059350 0.996476 0.298049
3 0 1 2
3 3 4 5
3 6 7 8
3 9 10 11
3 12 13 14
3 15 16 17
3 18 19 20
3 21 22 23
3 24 25 26
3 27 28 29
