ply
format ascii 1.0
comment Created by Blender 2.80 (sub 75) - www.blender.org, source file: ''
element vertex 95
property float x
property float y
property float z
property float nx
property float ny
property float nz
property float s
property float t
property uchar red
property uchar green
property uchar blue
property uchar alpha
element face 108
property list uchar uint vertex_indices
end_header
0.789616 -0.789616 1.000000 0.179357 -0.179357 0.967284 0.105192 0.105192 94 72 146 255
0.789616 0.789616 1.000000 0.179357 0.179357 0.967284 0.894808 0.105192 151 178 242 255
-0.789616 0.789616 1.000000 -0.179357 0.179357 0.967284 0.894808 0.894808 151 178 242 255
-0.789616 -0.789616 1.000000 -0.179357 -0.179357 0.967284 0.105192 0.894808 94 72 146 255
1.000000 -0.789616 -0.789616 0.967284 -0.179357 -0.179357 0.105192 0.105192 95 73 146 255
1.000000 0.789616 -0.789616 0.967284 0.179357 -0.179357 0.894808 0.105192 151 178 242 255
1.000000 0.789616 0.789616 0.967284 0.179357 0.179357 0.894808 0.894808 151 178 242 255
1.000000 -0.789616 0.789616 0.967284 -0.179357 0.179357 0.105192 0.894808 95 72 146 255
0.789616 1.000000 -0.789616 0.179357 0.967284 -0.179357 0.105192 0.105192 159 193 255 255
-0.789616 1.000000 -0.789616 -0.179357 0.967284 -0.179357 0.894808 0.105192 169 198 255 255
-0.789616 1.000000 0.789616 -0.179357 0.967284 0.179357 0.894808 0.894808 159 193 255 255
0.789616 1.000000 0.789616 0.179357 0.967284 0.179357 0.105192 0.894808 158 192 255 255
-1.000000 -0.789616 0.789616 -0.967284 -0.179357 0.179357 0.105192 0.105192 95 72 146 255
-1.000000 0.789616 0.789616 -0.967284 0.179357 0.179357 0.894808 0.105192 152 179 242 255
-1.000000 0.789616 -0.789616 -0.967284 0.179357 -0.179357 0.894808 0.894808 161 184 242 255
-1.000000 -0.789616 -0.789616 -0.967284 -0.179357 -0.179357 0.105192 0.894808 96 73 146 255
-0.789616 -0.789616 -1.000000 -0.179357 -0.179357 -0.967284 0.105192 0.105192 96 73 146 255
-0.789616 0.789616 -1.000000 -0.179357 0.179357 -0.967284 0.894808 0.105192 161 184 242 255
0.789616 0.789616 -1.000000 0.179357 0.179357 -0.967284 0.894808 0.894808 152 179 242 255
0.789616 -0.789616 -1.000000 0.179357 -0.179357 -0.967284 0.105192 0.894808 96 73 146 255
-0.789616 -1.000000 0.789616 -0.179357 -0.967284 0.179357 0.105192 0.894808 87 58 133 255
-0.789616 -0.938380 0.938380 -0.172552 -0.696493 0.696493 0.105192 1.000000 87 58 133 255
-0.911081 -0.911081 0.911081 -0.577349 -0.577349 0.577349 0.044459 1.000000 87 58 133 255
-0.938380 -0.938380 0.789616 -0.696493 -0.696493 0.172552 0.000000 0.894808 87 58 133 255
-0.938380 -0.789616 0.938380 -0.696493 -0.172552 0.696493 0.105192 1.000000 94 72 146 255
-0.911081 -0.911081 0.911081 -0.577349 -0.577349 0.577349 0.044459 1.000000 90 64 138 255
-0.789616 -0.938380 0.938380 -0.172552 -0.696493 0.696493 0.000000 0.894808 87 58 133 255
-0.938380 -0.938380 0.789616 -0.696493 -0.696493 0.172552 0.000000 0.105192 87 58 133 255
-0.911081 -0.911081 0.911081 -0.577349 -0.577349 0.577349 0.000000 0.044459 87 58 133 255
-0.938380 -0.789616 0.938380 -0.696493 -0.172552 0.696493 0.105192 0.000000 94 72 146 255
-0.789616 0.938380 0.938380 -0.172552 0.696493 0.696493 1.000000 0.894808 158 192 255 255
-0.911081 0.911081 0.911081 -0.577349 0.577349 0.577349 1.000000 0.955541 158 192 255 255
-0.938380 0.789616 0.938380 -0.696493 0.172552 0.696493 0.894808 1.000000 151 178 242 255
-0.938380 0.938380 0.789616 -0.696493 0.696493 0.172552 1.000000 0.894808 159 193 255 255
-0.911081 0.911081 0.911081 -0.577349 0.577349 0.577349 1.000000 0.955541 159 192 255 255
-0.789616 0.938380 0.938380 -0.172552 0.696493 0.696493 0.894808 1.000000 158 192 255 255
-0.938380 0.789616 0.938380 -0.696493 0.172552 0.696493 0.894808 0.000000 151 178 242 255
-0.911081 0.911081 0.911081 -0.577349 0.577349 0.577349 0.955541 0.000000 155 186 250 255
-0.938380 0.938380 0.789616 -0.696493 0.696493 0.172552 1.000000 0.105192 159 193 255 255
-0.789616 -1.000000 -0.789616 -0.179357 -0.967284 -0.179357 0.105192 0.105192 87 58 133 255
-0.938380 -0.938380 -0.789616 -0.696493 -0.696493 -0.172552 0.000000 0.105192 87 58 133 255
-0.911081 -0.911081 -0.911081 -0.577349 -0.577349 -0.577349 0.000000 0.044459 87 58 133 255
-0.789616 -0.938380 -0.938380 -0.172552 -0.696493 -0.696493 0.105192 0.000000 87 58 133 255
-0.938380 -0.789616 -0.938380 -0.696493 -0.172552 -0.696493 0.105192 1.000000 96 73 146 255
-0.911081 -0.911081 -0.911081 -0.577349 -0.577349 -0.577349 0.044459 1.000000 91 64 138 255
-0.938380 -0.938380 -0.789616 -0.696493 -0.696493 -0.172552 0.000000 0.894808 87 58 133 255
-0.789616 -0.938380 -0.938380 -0.172552 -0.696493 -0.696493 0.000000 0.105192 87 58 133 255
-0.938380 -0.789616 -0.938380 -0.696493 -0.172552 -0.696493 0.105192 0.000000 96 73 146 255
-0.789616 0.938380 -0.938380 -0.172552 0.696493 -0.696493 0.894808 0.000000 170 199 255 255
-0.911081 0.911081 -0.911081 -0.577349 0.577349 -0.577349 0.955541 0.000000 170 200 255 255
-0.938380 0.938380 -0.789616 -0.696493 0.696493 -0.172552 1.000000 0.105192 170 199 255 255
-0.938380 0.789616 -0.938380 -0.696493 0.172552 -0.696493 0.894808 0.000000 162 185 242 255
-0.911081 0.911081 -0.911081 -0.577349 0.577349 -0.577349 0.955541 0.000000 167 194 250 255
-0.789616 0.938380 -0.938380 -0.172552 0.696493 -0.696493 1.000000 0.105192 170 199 255 255
-0.938380 0.938380 -0.789616 -0.696493 0.696493 -0.172552 1.000000 0.894808 170 199 255 255
-0.911081 0.911081 -0.911081 -0.577349 0.577349 -0.577349 1.000000 0.955541 170 200 255 255
-0.938380 0.789616 -0.938380 -0.696493 0.172552 -0.696493 0.894808 1.000000 162 185 242 255
0.789616 -1.000000 0.789616 0.179357 -0.967284 0.179357 0.894808 0.894808 87 58 133 255
0.938380 -0.938380 0.789616 0.696493 -0.696493 0.172552 1.000000 0.894808 87 58 133 255
0.911081 -0.911081 0.911081 0.577349 -0.577349 0.577349 1.000000 0.955541 87 58 133 255
0.789616 -0.938380 0.938380 0.172552 -0.696493 0.696493 0.894808 1.000000 87 58 133 255
0.938380 -0.789616 0.938380 0.696493 -0.172552 0.696493 0.105192 1.000000 94 72 146 255
0.911081 -0.911081 0.911081 0.577349 -0.577349 0.577349 0.044459 1.000000 90 64 138 255
0.938380 -0.938380 0.789616 0.696493 -0.696493 0.172552 0.000000 0.894808 87 58 133 255
0.789616 -0.938380 0.938380 0.172552 -0.696493 0.696493 0.000000 0.105192 87 58 133 255
0.911081 -0.911081 0.911081 0.577349 -0.577349 0.577349 0.000000 0.044459 87 58 133 255
0.938380 -0.789616 0.938380 0.696493 -0.172552 0.696493 0.105192 0.000000 94 72 146 255
0.789616 0.938380 0.938380 0.172552 0.696493 0.696493 0.105192 1.000000 158 192 255 255
0.911081 0.911081 0.911081 0.577349 0.577349 0.577349 0.044459 1.000000 158 192 255 255
0.938380 0.938380 0.789616 0.696493 0.696493 0.172552 0.000000 0.894808 158 192 255 255
0.938380 0.789616 0.938380 0.696493 0.172552 0.696493 0.894808 0.000000 151 178 242 255
0.911081 0.911081 0.911081 0.577349 0.577349 0.577349 0.955541 0.000000 155 186 250 255
0.789616 0.938380 0.938380 0.172552 0.696493 0.696493 1.000000 0.105192 158 192 255 255
0.938380 0.938380 0.789616 0.696493 0.696493 0.172552 1.000000 0.894808 158 192 255 255
0.911081 0.911081 0.911081 0.577349 0.577349 0.577349 1.000000 0.955541 158 192 255 255
0.938380 0.789616 0.938380 0.696493 0.172552 0.696493 0.894808 1.000000 151 178 242 255
0.789616 -1.000000 -0.789616 0.179357 -0.967284 -0.179357 0.894808 0.105192 88 59 133 255
0.789616 -0.938380 -0.938380 0.172552 -0.696493 -0.696493 0.894808 0.000000 88 59 133 255
0.911081 -0.911081 -0.911081 0.577349 -0.577349 -0.577349 0.955541 0.000000 88 59 133 255
0.938380 -0.938380 -0.789616 0.696493 -0.696493 -0.172552 1.000000 0.105192 88 59 133 255
0.938380 -0.789616 -0.938380 0.696493 -0.172552 -0.696493 0.105192 1.000000 95 73 146 255
0.911081 -0.911081 -0.911081 0.577349 -0.577349 -0.577349 0.044459 1.000000 91 65 138 255
0.789616 -0.938380 -0.938380 0.172552 -0.696493 -0.696493 0.000000 0.894808 88 59 133 255
0.938380 -0.938380 -0.789616 0.696493 -0.696493 -0.172552 0.000000 0.105192 88 59 133 255
0.911081 -0.911081 -0.911081 0.577349 -0.577349 -0.577349 0.000000 0.044459 88 59 133 255
0.938380 -0.789616 -0.938380 0.696493 -0.172552 -0.696493 0.105192 0.000000 95 73 146 255
0.938380 0.938380 -0.789616 0.696493 0.696493 -0.172552 0.000000 0.105192 158 192 255 255
0.911081 0.911081 -0.911081 0.577349 0.577349 -0.577349 0.000000 0.044459 158 192 255 255
0.789616 0.938380 -0.938380 0.172552 0.696493 -0.696493 0.105192 0.000000 159 193 255 255
0.938380 0.789616 -0.938380 0.696493 0.172552 -0.696493 0.894808 0.000000 151 178 242 255
0.911081 0.911081 -0.911081 0.577349 0.577349 -0.577349 0.955541 0.000000 155 186 250 255
0.938380 0.938380 -0.789616 0.696493 0.696493 -0.172552 1.000000 0.105192 158 192 255 255
0.789616 0.938380 -0.938380 0.172552 0.696493 -0.696493 1.000000 0.894808 159 193 255 255
0.911081 0.911081 -0.911081 0.577349 0.577349 -0.577349 1.000000 0.955541 159 192 255 255
0.938380 0.789616 -0.938380 0.696493 0.172552 -0.696493 0.894808 1.000000 151 178 242 255
3 0 1 2
3 0 2 3
3 4 5 6
3 4 6 7
3 8 9 10
3 8 10 11
3 12 13 14
3 12 14 15
3 16 17 18
3 16 18 19
3 20 21 22
3 20 22 23
3 3 24 25
3 3 25 26
3 12 27 28
3 12 28 29
3 2 30 31
3 2 31 32
3 10 33 34
3 10 34 35
3 13 36 37
3 13 37 38
3 39 40 41
3 39 41 42
3 15 43 44
3 15 44 45
3 16 46 41
3 16 41 47
3 9 48 49
3 9 49 50
3 17 51 52
3 17 52 53
3 14 54 55
3 14 55 56
3 57 58 59
3 57 59 60
3 7 61 62
3 7 62 63
3 0 64 65
3 0 65 66
3 11 67 68
3 11 68 69
3 1 70 71
3 1 71 72
3 6 73 74
3 6 74 75
3 76 77 78
3 76 78 79
3 19 80 81
3 19 81 82
3 4 83 84
3 4 84 85
3 8 86 87
3 8 87 88
3 5 89 90
3 5 90 91
3 18 92 93
3 18 93 94
3 39 20 23
3 39 23 40
3 45 27 12
3 45 12 15
3 3 2 32
3 3 32 24
3 29 36 13
3 29 13 12
3 10 9 50
3 10 50 33
3 38 54 14
3 38 14 13
3 17 16 47
3 17 47 51
3 56 43 15
3 56 15 14
3 76 39 42
3 76 42 77
3 82 46 16
3 82 16 19
3 9 8 88
3 9 88 48
3 53 92 18
3 53 18 17
3 5 4 85
3 5 85 89
3 94 80 19
3 94 19 18
3 57 76 79
3 57 79 58
3 63 83 4
3 63 4 7
3 8 11 69
3 8 69 86
3 91 73 6
3 91 6 5
3 1 0 66
3 1 66 70
3 75 61 7
3 75 7 6
3 20 57 60
3 20 60 21
3 26 64 0
3 26 0 3
3 11 10 35
3 11 35 67
3 72 30 2
3 72 2 1
3 39 76 57
3 39 57 20
