ply
format ascii 1.0
comment Created by Blender 2.80 (sub 75) - www.blender.org, source file: 'tank.blend'
element vertex 178
property float x
property float y
property float z
property float nx
property float ny
property float nz
property float s
property float t
property uchar red
property uchar green
property uchar blue
property uchar alpha
element face 112
property list uchar uint vertex_indices
end_header
-0.373574 0.257635 -0.916839 -0.000000 1.000000 0.000000 0.174658 0.333200 231 231 231 255
-0.665233 0.257635 -0.916839 -0.000000 1.000000 0.000000 0.174658 0.224485 255 255 255 255
-0.665233 0.257635 0.801124 -0.000000 1.000000 0.000000 0.699743 0.224485 255 255 255 255
-0.373574 0.257635 0.801124 0.000000 1.000000 0.000000 0.699743 0.333200 255 255 255 255
-0.373574 -0.000732 1.007818 -0.000000 0.624695 0.780869 0.835425 0.224208 255 255 255 255
-0.373574 0.257635 0.801124 -0.000000 0.624695 0.780869 0.699743 0.224208 255 255 255 255
-0.665233 0.257635 0.801124 -0.000000 0.624695 0.780869 0.699743 0.333509 255 255 255 255
-0.751940 -0.000732 1.007818 0.000000 0.624695 0.780869 0.835425 0.333509 255 255 255 255
-0.751940 -0.000732 1.007818 -0.948038 0.318157 0.000000 0.859327 0.097620 255 255 255 255
-0.665233 0.257635 0.801124 -0.948038 0.318157 0.000000 0.772144 0.223951 255 255 255 255
-0.665233 0.257635 -0.916839 -0.948038 0.318157 0.000000 0.047512 0.223951 255 255 255 255
-0.751940 -0.000732 1.007818 -0.949359 0.314193 -0.000592 0.859327 0.097620 255 255 255 255
-0.665233 0.257635 -0.916839 -0.949359 0.314193 -0.000592 0.047512 0.223951 255 255 255 255
-0.751940 -0.004494 -0.989990 -0.949359 0.314193 -0.000592 0.016657 0.095781 255 255 255 255
-0.373574 -0.004494 -0.989990 1.000000 0.000000 0.000000 0.016657 0.428008 255 255 255 255
-0.373574 0.257635 -0.916839 1.000000 0.000000 0.000000 0.047512 0.333170 231 231 231 255
-0.373574 0.257635 0.801124 1.000000 0.000000 0.000000 0.772144 0.333170 255 255 255 255
-0.373574 -0.000732 1.007818 1.000000 0.000000 0.000000 0.859327 0.426647 255 255 255 255
-0.751940 -0.004494 -0.989990 0.000000 0.268793 -0.963198 0.016657 0.224485 255 255 255 255
-0.665233 0.257635 -0.916839 0.000000 0.268793 -0.963198 0.174658 0.224485 255 255 255 255
-0.373574 0.257635 -0.916839 0.000000 0.268793 -0.963198 0.174658 0.333232 231 231 231 255
-0.373574 -0.004494 -0.989990 0.000000 0.268793 -0.963198 0.016657 0.333232 255 255 255 255
-0.712985 -0.200382 -0.763921 -0.000000 -1.000000 -0.000000 0.750474 0.868898 16 16 16 255
-0.412529 -0.200382 -0.763921 -0.000000 -1.000000 -0.000000 0.875880 0.868898 32 32 32 255
-0.412529 -0.200382 0.739900 -0.000000 -1.000000 -0.000000 0.875880 0.619477 16 16 16 255
-0.712985 -0.200382 0.739900 0.000000 -1.000000 -0.000000 0.750474 0.619477 16 16 16 255
-0.712985 0.057986 0.931288 0.000000 -0.595237 0.803550 0.750474 0.506977 255 255 255 255
-0.712985 -0.200382 0.739900 0.000000 -0.595237 0.803550 0.750474 0.619477 16 16 16 255
-0.412529 -0.200382 0.739900 0.000000 -0.595237 0.803550 0.875880 0.619477 16 16 16 255
-0.412529 0.057986 0.931288 0.000000 -0.595237 0.803550 0.875880 0.506977 255 255 255 255
-0.412529 0.057986 0.931288 1.000000 0.000000 0.000000 0.827047 0.405403 255 255 255 255
-0.412529 -0.200382 0.739900 1.000000 0.000000 0.000000 0.746320 0.498879 16 16 16 255
-0.412529 -0.200382 -0.763921 1.000000 0.000000 0.000000 0.112012 0.498879 32 32 32 255
-0.412529 0.057986 -0.955309 1.000000 0.000000 -0.000000 0.031285 0.405403 255 255 255 255
-0.712985 0.057986 -0.955309 -1.000000 0.000000 0.000000 0.031285 0.090920 255 255 255 255
-0.712985 -0.200382 -0.763921 -1.000000 0.000000 0.000000 0.112012 0.000000 16 16 16 255
-0.712985 -0.200382 0.739900 -1.000000 0.000000 0.000000 0.746320 0.000000 16 16 16 255
-0.712985 0.057986 0.931288 -1.000000 0.000000 -0.000000 0.827047 0.090920 255 255 255 255
-0.412529 0.057986 -0.955309 0.000000 -0.595237 -0.803550 0.875880 1.000000 255 255 255 255
-0.412529 -0.200382 -0.763921 0.000000 -0.595237 -0.803550 0.875880 0.868898 32 32 32 255
-0.712985 -0.200382 -0.763921 0.000000 -0.595237 -0.803550 0.750474 0.868898 16 16 16 255
-0.712985 0.057986 -0.955309 0.000000 -0.595237 -0.803550 0.750474 1.000000 255 255 255 255
-0.430512 -0.171463 -0.732330 -0.000000 -1.000000 -0.000000 0.624800 0.622579 98 98 98 255
-0.000000 -0.171463 -0.732330 -0.000000 -1.000000 -0.000000 0.501821 0.622579 0 0 0 255
-0.000000 -0.171463 0.488943 -0.000000 -1.000000 -0.000000 0.501821 0.875879 4 4 4 255
-0.430512 -0.171463 0.488943 0.000000 -1.000000 -0.000000 0.624800 0.875879 255 255 255 255
-0.430512 -0.171463 -0.732330 -0.000000 -0.585791 -0.810462 0.624800 0.622579 98 98 98 255
-0.430512 0.039693 -0.884951 -0.000000 -0.585791 -0.810462 0.624800 0.507777 255 255 255 255
-0.000000 0.039693 -0.884951 -0.000000 -0.585791 -0.810462 0.501821 0.507777 255 255 255 255
-0.000000 -0.171463 -0.732330 0.000000 -0.585791 -0.810462 0.501821 0.622579 0 0 0 255
-0.000000 0.006177 0.819532 -0.000000 0.594001 0.804464 0.996094 0.348450 134 134 134 255
-0.000000 0.250849 0.638871 -0.000000 0.594001 0.804464 0.996094 0.429397 255 255 255 255
-0.430512 0.250849 0.638871 -0.000000 0.594001 0.804464 0.880527 0.429397 255 255 255 255
-0.430512 0.006177 0.819532 0.000000 0.594001 0.804464 0.880527 0.348450 255 255 255 255
-0.000000 0.250849 -0.884951 -0.000000 1.000000 0.000000 0.996094 0.917137 68 68 68 255
-0.430512 0.250849 -0.884951 -0.000000 1.000000 0.000000 0.880527 0.917137 255 255 255 255
-0.430512 0.250849 0.638871 -0.000000 1.000000 0.000000 0.880527 0.429397 255 255 255 255
-0.000000 0.250849 0.638871 0.000000 1.000000 0.000000 0.996094 0.429397 255 255 255 255
-0.430512 -0.171463 0.488943 0.000000 -0.880882 0.473337 0.624800 0.875879 255 255 255 255
-0.000000 -0.171463 0.488943 0.000000 -0.880882 0.473337 0.501821 0.875879 4 4 4 255
-0.000000 0.006177 0.819532 0.000000 -0.880882 0.473337 0.501821 1.000000 134 134 134 255
-0.430512 0.006177 0.819532 0.000000 -0.880882 0.473337 0.624800 1.000000 255 255 255 255
-0.430512 0.039693 -0.884951 -0.000000 -0.000000 -1.000000 0.999738 0.917200 255 255 255 255
-0.430512 0.250849 -0.884951 -0.000000 -0.000000 -1.000000 0.999738 0.998450 255 255 255 255
-0.000000 0.250849 -0.884951 -0.000000 -0.000000 -1.000000 0.879371 0.998450 68 68 68 255
-0.000000 0.039693 -0.884951 -0.000000 0.000000 -1.000000 0.879371 0.917200 255 255 255 255
-0.000000 0.535935 -0.231375 -0.000000 1.000000 0.000000 0.242690 0.854727 6 6 6 255
-0.146613 0.535935 -0.584134 -0.000000 1.000000 0.000000 0.184934 0.711285 255 255 255 255
-0.354627 0.535935 -0.376154 -0.000000 1.000000 0.000000 0.099576 0.795855 255 255 255 255
-0.354624 0.535935 -0.082064 -0.000000 1.000000 0.000000 0.099576 0.915440 255 255 255 255
-0.146670 0.535935 0.125887 -0.000000 1.000000 -0.000000 0.184908 1.000000 241 241 241 255
0.000406 0.535935 0.125873 -0.000000 1.000000 0.000000 0.242856 0.999995 80 80 80 255
0.000401 0.535935 -0.584122 -0.000000 1.000000 0.000000 0.242856 0.711290 255 255 255 255
-0.177830 0.245050 -0.659393 -0.368450 0.269692 -0.889645 0.001507 0.940195 192 192 192 255
-0.146613 0.535935 -0.584134 -0.368389 0.269692 -0.889676 0.099790 0.940195 255 255 255 255
0.000401 0.535935 -0.584122 0.000061 0.250465 -0.968108 0.099790 1.000000 255 255 255 255
0.000449 0.245050 -0.659378 0.000061 0.250465 -0.968108 0.001507 1.000000 252 252 252 255
-0.430080 0.245050 -0.407182 -0.889584 0.270028 -0.368358 0.001507 0.820534 255 255 255 255
-0.354627 0.535935 -0.376154 -0.889462 0.270028 -0.368664 0.099790 0.820534 255 255 255 255
-0.177898 0.245050 0.201625 -0.368206 0.271065 0.889309 0.001507 0.581262 254 254 254 255
-0.146670 0.535935 0.125887 -0.368389 0.271065 0.889248 0.099790 0.581262 241 241 241 255
-0.354624 0.535935 -0.082064 -0.889462 0.270608 0.368206 0.099790 0.700898 255 255 255 255
-0.430077 0.245050 -0.050550 -0.889309 0.270608 0.368542 0.001507 0.700898 255 255 255 255
-0.102926 0.429548 0.127263 -0.947935 0.318400 0.000000 0.397409 0.888175 244 244 244 255
-0.102926 0.429548 0.950799 -0.521043 0.200354 0.829646 0.397409 0.623518 118 118 118 255
-0.000000 0.501260 0.950799 0.000000 0.532914 0.846156 0.490183 0.623518 255 255 255 255
-0.000000 0.501260 0.127263 0.000000 1.000000 0.000000 0.490183 0.888175 68 68 68 255
0.000456 0.245050 0.201608 0.000092 0.251930 0.967711 0.001507 0.521432 223 223 223 255
0.000406 0.535935 0.125873 0.000092 0.251930 0.967711 0.099790 0.521432 80 80 80 255
-0.065225 0.313515 0.127263 -0.587756 -0.809015 0.000000 0.304635 0.888175 242 242 242 255
-0.065225 0.313515 0.950799 -0.338206 -0.457350 0.822443 0.304635 0.623518 237 237 237 255
-0.065225 0.313515 0.950799 -0.338206 -0.457350 0.822443 0.368606 0.907706 237 237 237 255
-0.000000 0.408356 0.797914 0.000000 -0.054048 0.998535 0.368606 0.907706 31 31 31 255
-0.102926 0.429548 0.950799 -0.521043 0.200354 0.829646 0.376229 0.907706 118 118 118 255
-0.000000 0.408356 0.797914 0.000000 -0.054048 0.998535 0.376229 0.907706 31 31 31 255
-0.000000 0.501260 0.950799 0.000000 0.532914 0.846156 0.383852 0.907706 255 255 255 255
-0.000000 0.313515 0.950799 0.000000 -0.274056 0.961699 0.364813 0.907706 80 80 80 255
-0.000000 0.408356 0.797914 0.000000 -0.054048 0.998535 0.364813 0.907706 31 31 31 255
-0.000000 0.313515 0.127263 0.000000 -1.000000 0.000000 0.258482 0.888175 0 0 0 255
-0.000000 0.313515 0.950799 0.000000 -0.274056 0.961699 0.258482 0.623518 80 80 80 255
0.373573 0.257635 -0.916839 0.000000 1.000000 0.000000 0.174658 0.333200 231 231 231 255
0.373573 0.257635 0.801124 0.000000 1.000000 0.000000 0.699743 0.333200 255 255 255 255
0.665233 0.257635 0.801124 0.000000 1.000000 0.000000 0.699743 0.224485 255 255 255 255
0.665233 0.257635 -0.916839 0.000000 1.000000 -0.000000 0.174658 0.224485 255 255 255 255
0.373573 -0.000732 1.007818 0.000000 0.624695 0.780869 0.835425 0.224208 255 255 255 255
0.751940 -0.000732 1.007818 0.000000 0.624695 0.780869 0.835425 0.333509 255 255 255 255
0.665233 0.257635 0.801124 0.000000 0.624695 0.780869 0.699743 0.333509 255 255 255 255
0.373573 0.257635 0.801124 -0.000000 0.624695 0.780869 0.699743 0.224208 255 255 255 255
0.751940 -0.000732 1.007818 0.949359 0.314194 -0.000592 0.859327 0.097620 255 255 255 255
0.751940 -0.004494 -0.989990 0.949359 0.314194 -0.000592 0.016657 0.095781 255 255 255 255
0.665233 0.257635 -0.916839 0.949359 0.314194 -0.000592 0.047512 0.223951 255 255 255 255
0.751940 -0.000732 1.007818 0.948038 0.318157 0.000000 0.859327 0.097620 255 255 255 255
0.665233 0.257635 -0.916839 0.948038 0.318157 0.000000 0.047512 0.223951 255 255 255 255
0.665233 0.257635 0.801124 0.948038 0.318157 0.000000 0.772144 0.223951 255 255 255 255
0.373573 -0.004494 -0.989990 -1.000000 -0.000000 0.000000 0.016657 0.428008 255 255 255 255
0.373573 -0.000732 1.007818 -1.000000 -0.000000 0.000000 0.859327 0.426647 255 255 255 255
0.373573 0.257635 0.801124 -1.000000 -0.000000 0.000000 0.772144 0.333170 255 255 255 255
0.373573 0.257635 -0.916839 -1.000000 -0.000000 0.000000 0.047512 0.333170 231 231 231 255
0.751940 -0.004494 -0.989990 0.000000 0.268793 -0.963198 0.016657 0.224485 255 255 255 255
0.373573 -0.004494 -0.989990 0.000000 0.268793 -0.963198 0.016657 0.333232 255 255 255 255
0.373573 0.257635 -0.916839 0.000000 0.268793 -0.963198 0.174658 0.333232 231 231 231 255
0.665233 0.257635 -0.916839 0.000000 0.268793 -0.963198 0.174658 0.224485 255 255 255 255
0.712985 -0.200382 -0.763921 0.000000 -1.000000 0.000000 0.750474 0.868898 16 16 16 255
0.712985 -0.200382 0.739900 0.000000 -1.000000 0.000000 0.750474 0.619477 16 16 16 255
0.412528 -0.200382 0.739900 0.000000 -1.000000 0.000000 0.875880 0.619477 16 16 16 255
0.412528 -0.200382 -0.763921 0.000000 -1.000000 0.000000 0.875880 0.868898 32 32 32 255
0.712985 0.057986 0.931288 0.000000 -0.595237 0.803550 0.750474 0.506977 255 255 255 255
0.412528 0.057986 0.931288 0.000000 -0.595237 0.803550 0.875880 0.506977 255 255 255 255
0.412528 -0.200382 0.739900 0.000000 -0.595237 0.803550 0.875880 0.619477 16 16 16 255
0.712985 -0.200382 0.739900 0.000000 -0.595237 0.803550 0.750474 0.619477 16 16 16 255
0.412528 0.057986 0.931288 -1.000000 0.000000 0.000000 0.827047 0.405403 255 255 255 255
0.412528 0.057986 -0.955309 -1.000000 0.000000 0.000000 0.031285 0.405403 255 255 255 255
0.412528 -0.200382 -0.763921 -1.000000 0.000000 0.000000 0.112012 0.498879 32 32 32 255
0.412528 -0.200382 0.739900 -1.000000 0.000000 0.000000 0.746320 0.498879 16 16 16 255
0.712985 0.057986 -0.955309 1.000000 -0.000000 0.000000 0.031285 0.090920 255 255 255 255
0.712985 0.057986 0.931288 1.000000 -0.000000 0.000000 0.827047 0.090920 255 255 255 255
0.712985 -0.200382 0.739900 1.000000 -0.000000 0.000000 0.746320 0.000000 16 16 16 255
0.712985 -0.200382 -0.763921 1.000000 -0.000000 0.000000 0.112012 0.000000 16 16 16 255
0.412528 0.057986 -0.955309 -0.000000 -0.595237 -0.803550 0.875880 1.000000 255 255 255 255
0.712985 0.057986 -0.955309 -0.000000 -0.595237 -0.803550 0.750474 1.000000 255 255 255 255
0.712985 -0.200382 -0.763921 -0.000000 -0.595237 -0.803550 0.750474 0.868898 16 16 16 255
0.412528 -0.200382 -0.763921 0.000000 -0.595237 -0.803550 0.875880 0.868898 32 32 32 255
0.430512 -0.171463 -0.732330 0.000000 -1.000000 0.000000 0.624800 0.622579 98 98 98 255
0.430512 -0.171463 0.488943 0.000000 -1.000000 0.000000 0.624800 0.875879 255 255 255 255
0.430512 -0.171463 -0.732330 0.000000 -0.585791 -0.810462 0.624800 0.622579 98 98 98 255
0.430512 0.039693 -0.884951 -0.000000 -0.585791 -0.810462 0.624800 0.507777 255 255 255 255
0.430512 0.006177 0.819532 0.000000 0.594001 0.804464 0.880527 0.348450 255 255 255 255
0.430512 0.250849 0.638871 0.000000 0.594001 0.804464 0.880527 0.429397 255 255 255 255
0.430512 0.250849 0.638871 0.000000 1.000000 0.000000 0.880527 0.429397 255 255 255 255
0.430512 0.250849 -0.884951 0.000000 1.000000 -0.000000 0.880527 0.917137 255 255 255 255
0.430512 -0.171463 0.488943 0.000000 -0.880882 0.473337 0.624800 0.875879 255 255 255 255
0.430512 0.006177 0.819532 0.000000 -0.880882 0.473337 0.624800 1.000000 255 255 255 255
0.430512 0.039693 -0.884951 0.000000 0.000000 -1.000000 0.999738 0.917200 255 255 255 255
0.430512 0.250849 -0.884951 -0.000000 -0.000000 -1.000000 0.999738 0.998450 255 255 255 255
0.354626 0.535935 -0.376154 0.000000 1.000000 -0.000000 0.099576 0.795855 255 255 255 255
0.146613 0.535935 -0.584134 0.000000 1.000000 -0.000000 0.184934 0.711285 255 255 255 255
0.354624 0.535935 -0.082064 0.000000 1.000000 0.000000 0.099576 0.915440 255 255 255 255
0.146670 0.535935 0.125887 0.000000 1.000000 -0.000000 0.184908 1.000000 241 241 241 255
-0.000406 0.535935 0.125873 0.000000 1.000000 -0.000000 0.242856 0.999995 80 80 80 255
-0.000401 0.535935 -0.584122 0.000000 1.000000 0.000000 0.242856 0.711290 255 255 255 255
0.177829 0.245050 -0.659393 0.368450 0.269692 -0.889645 0.001507 0.940195 192 192 192 255
-0.000449 0.245050 -0.659378 -0.000061 0.250465 -0.968108 0.001507 1.000000 252 252 252 255
-0.000401 0.535935 -0.584122 -0.000061 0.250465 -0.968108 0.099790 1.000000 255 255 255 255
0.146613 0.535935 -0.584134 0.368389 0.269692 -0.889676 0.099790 0.940195 255 255 255 255
0.430080 0.245050 -0.407182 0.889584 0.270028 -0.368358 0.001507 0.820534 255 255 255 255
0.354626 0.535935 -0.376154 0.889462 0.270028 -0.368664 0.099790 0.820534 255 255 255 255
0.177898 0.245050 0.201625 0.368206 0.271065 0.889309 0.001507 0.581262 254 254 254 255
0.430077 0.245050 -0.050550 0.889309 0.270608 0.368542 0.001507 0.700898 255 255 255 255
0.354624 0.535935 -0.082064 0.889462 0.270608 0.368206 0.099790 0.700898 255 255 255 255
0.146670 0.535935 0.125887 0.368389 0.271065 0.889248 0.099790 0.581262 241 241 241 255
0.102926 0.429548 0.127263 0.947935 0.318400 0.000000 0.397409 0.888175 244 244 244 255
0.102926 0.429548 0.950799 0.521043 0.200354 0.829646 0.397409 0.623518 118 118 118 255
-0.000456 0.245050 0.201608 -0.000092 0.251930 0.967711 0.001507 0.521432 223 223 223 255
-0.000406 0.535935 0.125873 -0.000092 0.251930 0.967711 0.099790 0.521432 80 80 80 255
0.065225 0.313515 0.127263 0.587756 -0.809015 0.000000 0.304635 0.888175 242 242 242 255
0.065225 0.313515 0.950799 0.338206 -0.457350 0.822443 0.304635 0.623518 237 237 237 255
0.065225 0.313515 0.950799 0.338206 -0.457350 0.822443 0.368606 0.907706 237 237 237 255
0.102926 0.429548 0.950799 0.521043 0.200354 0.829646 0.376229 0.907706 118 118 118 255
3 0 1 2
3 0 2 3
3 4 5 6
3 4 6 7
3 8 9 10
3 11 12 13
3 14 15 16
3 14 16 17
3 18 19 20
3 18 20 21
3 22 23 24
3 22 24 25
3 26 27 28
3 26 28 29
3 30 31 32
3 30 32 33
3 34 35 36
3 34 36 37
3 38 39 40
3 38 40 41
3 42 43 44
3 42 44 45
3 46 47 48
3 46 48 49
3 50 51 52
3 50 52 53
3 54 55 56
3 54 56 57
3 58 59 60
3 58 60 61
3 62 63 64
3 62 64 65
3 66 67 68
3 66 68 69
3 70 66 69
3 71 66 70
3 72 67 66
3 73 74 75
3 73 75 76
3 77 78 74
3 77 74 73
3 79 80 81
3 79 81 82
3 83 84 85
3 83 85 86
3 82 81 78
3 82 78 77
3 87 88 80
3 87 80 79
3 89 90 84
3 89 84 83
3 91 92 93
3 93 94 95
3 96 97 91
3 89 98 99
3 89 99 90
3 100 101 102
3 100 102 103
3 104 105 106
3 104 106 107
3 108 109 110
3 111 112 113
3 114 115 116
3 114 116 117
3 118 119 120
3 118 120 121
3 122 123 124
3 122 124 125
3 126 127 128
3 126 128 129
3 130 131 132
3 130 132 133
3 134 135 136
3 134 136 137
3 138 139 140
3 138 140 141
3 142 143 44
3 142 44 43
3 144 49 48
3 144 48 145
3 50 146 147
3 50 147 51
3 54 57 148
3 54 148 149
3 150 151 60
3 150 60 59
3 152 65 64
3 152 64 153
3 66 154 155
3 66 156 154
3 157 156 66
3 158 157 66
3 159 66 155
3 160 161 162
3 160 162 163
3 164 160 163
3 164 163 165
3 166 167 168
3 166 168 169
3 170 86 85
3 170 85 171
3 167 164 165
3 167 165 168
3 172 166 169
3 172 169 173
3 174 170 171
3 174 171 175
3 176 177 92
3 177 95 94
3 96 176 97
3 174 175 99
3 174 99 98
